<svg width="182" height="230" viewBox="0 0 182 230" fill="none" xmlns="http://www.w3.org/2000/svg">
<path fill-rule="evenodd" clip-rule="evenodd" d="M161.031 71.1786L91.3398 22.194L20.4948 71.2679V78.0166L91.3411 125.993L161.031 78.1057V71.1786ZM6.30326 56.1668C2.35547 58.9014 0 63.3984 0 68.2008V81.1232C0 85.9803 2.40905 90.5211 6.43075 93.2445L83.1567 145.202C88.1442 148.58 94.6914 148.558 99.6558 145.146L175.177 93.2521C179.151 90.5213 181.526 86.0087 181.526 81.1868V68.137C181.526 63.3701 179.205 58.9016 175.305 56.1604L99.7824 3.07709C94.7618 -0.451823 88.073 -0.474738 83.0283 3.01969L6.30326 56.1668Z" fill="#0C192F"/>
<path fill-rule="evenodd" clip-rule="evenodd" d="M0.261719 123.897C0.966073 127.719 3.17254 131.145 6.45005 133.365L83.176 185.322C88.1635 188.7 94.7107 188.678 99.6751 185.266L175.196 133.372C178.448 131.138 180.629 127.711 181.314 123.897H152.796L91.3604 166.113L29.0213 123.897H0.261719Z" fill="#0C192F"/>
<path fill-rule="evenodd" clip-rule="evenodd" d="M0.261719 165.112C0.966072 168.933 3.17254 172.359 6.45005 174.579L83.176 226.537C88.1635 229.914 94.7107 229.892 99.6751 226.481L175.196 174.586C178.448 172.352 180.629 168.925 181.314 165.112H152.796L91.3604 207.327L29.0213 165.112H0.261719Z" fill="#0C192F"/>
</svg>
